<svg width="34px" version="1.1" xmlns="http://www.w3.org/2000/svg" xmlns:xlink="http://www.w3.org/1999/xlink" x="0px" y="0px" viewBox="0 0 433.539 433.539" style="enable-background:new 0 0 433.539 433.539; fill: url(#lgrad);" xml:space="preserve">
    <defs>
        <linearGradient id="lgrad" x1="66%" y1="0%" x2="34%" y2="100%">
            <stop offset="0%" style="stop-color:rgb(186,161,21);stop-opacity:1" />
            <stop offset="25%" style="stop-color:rgb(249,225,127);stop-opacity:1" />
            <stop offset="35%" style="stop-color:rgb(225,200,86);stop-opacity:1" />
            <stop offset="50%" style="stop-color:rgb(189,164,26);stop-opacity:1" />
            <stop offset="75%" style="stop-color:rgb(249,225,127);stop-opacity:1" />
            <stop offset="100%" style="stop-color:rgb(189,164,26);stop-opacity:1" />
        </linearGradient>
    </defs>
    <path d="M388.81,99.619h-100c9.297-9.679,15.435-21.955,17.6-35.2c2.403-12.937-1.555-26.241-10.64-35.76
			c-7.622-7.421-17.927-11.433-28.56-11.12c-16.846,0.535-32.8,7.693-44.4,19.92c-1.236,1.254-2.385,2.59-3.44,4
			c-2.461-6.52-6.247-12.458-11.12-17.44c-13.663-14.581-32.514-23.202-52.48-24c-12.389-0.357-24.395,4.318-33.28,12.96
			c-10.601,11.153-15.212,26.712-12.4,41.84c2.752,16.721,10.801,32.117,22.96,43.92l0.56,0.48h-88.8
			c-9.561-0.407-17.648,7-18.08,16.56v76.4c0.301,9.583,8.313,17.108,17.896,16.807c0.061-0.002,0.123-0.004,0.184-0.007h4
			c-0.04,0.693-0.04,1.387,0,2.08v204.4c0,9.985,8.095,18.08,18.08,18.08h300.08c9.891-0.131,17.841-8.188,17.84-18.08v-204.64
			c0.031-0.613,0.031-1.227,0-1.84h3.92c9.579,0.406,17.673-7.031,18.079-16.61c0-0.01,0.001-0.02,0.001-0.03v-76.08
			C406.42,106.7,398.37,99.258,388.81,99.619z M234.49,48.739c8.665-9.162,20.526-14.634,33.12-15.28
			c6.366-0.208,12.554,2.123,17.2,6.48c5.462,6.017,7.722,14.281,6.08,22.24c-1.819,10.737-7.034,20.608-14.88,28.16
			c-8.791,6.866-19.841,10.178-30.96,9.28v0c-6.223-0.03-12.432-0.593-18.56-1.68C224.17,84.899,222.57,60.419,234.49,48.739z
			 M126.01,52.979c-2.062-10.153,0.919-20.677,8-28.24c5.937-5.5,13.836-8.382,21.92-8c15.663,0.778,30.421,7.57,41.2,18.96
			c16,16,11.84,49.6,9.52,62c-7.759,1.433-15.63,2.182-23.52,2.24h-0.72c-12,0-28.24-2.16-37.92-11.76
			C134.694,78.746,128.212,66.398,126.01,52.979z M44.81,192.979c-0.74-0.013-1.461-0.235-2.08-0.64v-75.92
			c0.541-0.561,1.303-0.853,2.08-0.8h102.32v77.36H44.81z M161.37,417.779H66.65c-1.149,0-2.08-0.931-2.08-2.08v-204.88
			c0-1.149,0.931-2.08,2.08-2.08h94.8L161.37,417.779z M256.17,417.779h-78.72v-208.8h78.8L256.17,417.779z M270.49,192.979H163.13
			v-77.36h107.36V192.979z M368.81,415.459c0,1.149-0.931,2.08-2.08,2.08h-94.56v-208.56h94.8c1.149,0,2.08,0.931,2.08,2.08
			L368.81,415.459z M390.89,191.859c-0.478,0.68-1.249,1.095-2.08,1.12v0H286.49v-77.36h102.32c0.732-0.007,1.451,0.187,2.08,0.56
			V191.859z" />
</svg>
