<svg version="1.1" xmlns="http://www.w3.org/2000/svg" xmlns:xlink="http://www.w3.org/1999/xlink" x="0px" y="0px" viewBox="0 0 374.107 374.107" style="enable-background:new 0 0 374.107 374.107; fill: url(#lgrad);" xml:space="preserve">
    <defs>
        <linearGradient id="lgrad" x1="66%" y1="0%" x2="34%" y2="100%">
            <stop offset="0%" style="stop-color:rgb(186,161,21);stop-opacity:1" />
            <stop offset="25%" style="stop-color:rgb(249,225,127);stop-opacity:1" />
            <stop offset="35%" style="stop-color:rgb(225,200,86);stop-opacity:1" />
            <stop offset="50%" style="stop-color:rgb(189,164,26);stop-opacity:1" />
            <stop offset="75%" style="stop-color:rgb(249,225,127);stop-opacity:1" />
            <stop offset="100%" style="stop-color:rgb(189,164,26);stop-opacity:1" />
        </linearGradient>
    </defs>
    <path d="M367.607,116.94H253.738V98.864c0-3.59-2.91-6.5-6.5-6.5H126.869c-3.59,0-6.5,2.91-6.5,6.5v41.481H6.5
		c-3.59,0-6.5,2.91-6.5,6.5v128.398c0,3.59,2.91,6.5,6.5,6.5h361.107c3.59,0,6.5-2.91,6.5-6.5V123.44
		C374.107,119.85,371.197,116.94,367.607,116.94z M13,153.345h107.369v115.398H13V153.345z M133.369,105.364h107.369v163.38H133.369
		V105.364z M361.107,268.744H253.738V129.94h107.369V268.744z" />
    <rect x="60.185" y="167.851" width="13" height="45" />
    <rect x="37.185" y="167.851" width="13" height="45" />
    <rect x="83.185" y="167.851" width="13" height="45" />
    <rect x="180.554" y="121.244" width="13" height="45" />
    <rect x="289.423" y="149.244" width="13" height="45" />
    <rect x="312.423" y="149.244" width="13" height="45" />
</svg>
