<svg width="26px" version="1.1" xmlns="http://www.w3.org/2000/svg" xmlns:xlink="http://www.w3.org/1999/xlink" x="0px" y="0px"
	 viewBox="0 0 38 38" style="enable-background:new 0 0 38 38; fill: url(#lgrad);" xml:space="preserve">
    <defs>
        <linearGradient id="lgrad" x1="66%" y1="0%" x2="34%" y2="100%">
            <stop offset="0%" style="stop-color:rgb(186,161,21);stop-opacity:1" />
            <stop offset="25%" style="stop-color:rgb(249,225,127);stop-opacity:1" />
            <stop offset="35%" style="stop-color:rgb(225,200,86);stop-opacity:1" />
            <stop offset="50%" style="stop-color:rgb(189,164,26);stop-opacity:1" />
            <stop offset="75%" style="stop-color:rgb(249,225,127);stop-opacity:1" />
            <stop offset="100%" style="stop-color:rgb(189,164,26);stop-opacity:1" />
        </linearGradient>
    </defs>
	<path d="M0.293,36.293l36-36l1.414,1.414l-36,36L0.293,36.293z"/>
	<path d="M6,12c3.309,0,6-2.691,6-6S9.309,0,6,0S0,2.691,0,6S2.691,12,6,12z M6,2c2.206,0,4,1.794,4,4s-1.794,4-4,4S2,8.206,2,6
		S3.794,2,6,2z"/>
	<path d="M32,26c-3.309,0-6,2.691-6,6s2.691,6,6,6s6-2.691,6-6S35.309,26,32,26z M32,36c-2.206,0-4-1.794-4-4s1.794-4,4-4
		s4,1.794,4,4S34.206,36,32,36z"/>
</svg>
