<svg width="37px" version="1.1" xmlns="http://www.w3.org/2000/svg" xmlns:xlink="http://www.w3.org/1999/xlink" x="0px" y="0px"
	 viewBox="0 0 58 58" style="enable-background:new 0 0 58 58; fill: url(#lgrad);" xml:space="preserve">
    <defs>
        <linearGradient id="lgrad" x1="66%" y1="0%" x2="34%" y2="100%">
            <stop offset="0%" style="stop-color:rgb(186,161,21);stop-opacity:1" />
            <stop offset="25%" style="stop-color:rgb(249,225,127);stop-opacity:1" />
            <stop offset="35%" style="stop-color:rgb(225,200,86);stop-opacity:1" />
            <stop offset="50%" style="stop-color:rgb(189,164,26);stop-opacity:1" />
            <stop offset="75%" style="stop-color:rgb(249,225,127);stop-opacity:1" />
            <stop offset="100%" style="stop-color:rgb(189,164,26);stop-opacity:1" />
        </linearGradient>
    </defs>
	<path d="M54.63,10H3.37C1.512,10,0,11.512,0,13.37v35.26C0,50.488,1.512,52,3.37,52h51.26c1.858,0,3.37-1.512,3.37-3.37V13.37
		C58,11.512,56.488,10,54.63,10z M56,48.63c0,0.756-0.614,1.37-1.37,1.37H3.37C2.614,50,2,49.386,2,48.63V13.37
		C2,12.614,2.614,12,3.37,12h51.26c0.756,0,1.37,0.614,1.37,1.37V48.63z"/>
	<path d="M30,14c-9.374,0-17,7.626-17,17s7.626,17,17,17s17-7.626,17-17S39.374,14,30,14z M30,46c-8.271,0-15-6.729-15-15
		s6.729-15,15-15s15,6.729,15,15S38.271,46,30,46z"/>
	<path d="M20,8h19c0.553,0,1-0.447,1-1s-0.447-1-1-1H20c-0.553,0-1,0.447-1,1S19.447,8,20,8z"/>
</svg>
